<svg xmlns="http://www.w3.org/2000/svg" xmlns:xlink="http://www.w3.org/1999/xlink" version="1.1" id="Layer_1" x="0px" y="0px" enable-background="new 0 0 1920 1080" xml:space="preserve" viewBox="872.3 454.29 175.27 171.26"><g>	<path d="M946.97,506.204h-5.28v64.316h10.68h3.24h10.079v-42.957C965.688,516.671,961.054,506.204,946.97,506.204z"></path>	<path d="M987.047,507.403h-9v31.439h9.12c15.72,0,18.84-7.08,18.84-16.439C1006.007,514.604,1002.047,507.403,987.047,507.403z"></path>	<path d="M960.593,454.293c-49.5,0-88.297,38.807-88.297,85.629c0,46.832,38.796,85.629,88.297,85.629   c48.172,0,86.968-38.797,86.968-85.629C1047.562,493.1,1008.765,454.293,960.593,454.293z M1012.367,580.36   c-4.439,0-7.919-3.479-7.919-7.68c0-4.199,3.479-7.68,7.919-7.68c4.32,0,7.8,3.48,7.8,7.68   C1020.167,576.881,1016.687,580.36,1012.367,580.36z M988.007,546.042h-9.959v24.479h14.64v7.92h-37.078h-3.24h-36.958v-7.92   h13.919v-64.316h-5.28c-10.56,0-12.839,3.479-18.719,21.359h-5.64v-28.08h52.678h18.959h15.599c24.599,0,33.239,10.92,33.239,22.68   C1020.167,533.083,1013.086,546.042,988.007,546.042z"></path></g><g></g><g></g><g></g><g></g><g></g><g></g><g></g><g></g><g></g><g></g><g></g><g></g><g></g><g></g><g></g></svg>